<svg width="48" height="48" viewBox="0 0 48 48" fill="none" xmlns="http://www.w3.org/2000/svg">
<path d="M15.266 21.452C15.266 19.824 16.586 18.504 18.214 18.504C19.842 18.504 21.162 19.824 21.162 21.452C21.162 25.136 15.266 25.136 15.266 29.5H21.162" stroke="#DC2828" stroke-width="2" stroke-linecap="round" stroke-linejoin="round"/>
<path d="M31.064 29.5C31.064 29.5 31.064 27.752 31.064 26.99H32.734H31.064H26.336C25.488 26.99 24.954 26.078 25.38 25.344C26.562 23.31 27.93 21.008 29.184 18.98C29.722 18.108 31.064 18.5 31.064 19.524V26.99" stroke="#DC2828" stroke-width="2" stroke-linecap="round" stroke-linejoin="round"/>
<path d="M40.848 9.60596V15.392H35.062H40.848" stroke="#DC2828" stroke-width="2" stroke-linecap="round" stroke-linejoin="round"/>
<path d="M39.81 15.392C36.758 9.798 30.824 6 24 6C14.058 6 6 14.06 6 24C6 33.94 14.058 42 24 42C33.942 42 42 33.94 42 24" stroke="#DC2828" stroke-width="2" stroke-linecap="round" stroke-linejoin="round"/>
</svg>
