<svg width="49" height="48" viewBox="0 0 49 48" fill="none" xmlns="http://www.w3.org/2000/svg">
<path d="M34.568 13.7143H38.5952C40.8203 13.7143 42.6224 15.5304 42.6224 17.7726V38.0641C42.6224 40.3064 40.8203 42.1225 38.5952 42.1225H10.4048C8.17972 42.1225 6.37755 40.3064 6.37755 38.0641V17.7726C6.37755 15.5304 8.17972 13.7143 10.4048 13.7143H14.432" stroke="#DC2828" stroke-width="2" stroke-linecap="round" stroke-linejoin="round"/>
<path fill-rule="evenodd" clip-rule="evenodd" d="M16.4432 19.8973L16.147 17.6653L14.779 15.8735C14.0261 14.8881 14.0261 13.5201 14.779 12.5347L16.147 10.745L16.4453 8.50891C16.6098 7.27874 17.5767 6.31188 18.8069 6.14731L21.0389 5.85108L22.8306 4.48308C23.816 3.73017 25.184 3.73017 26.1694 4.48308L27.9591 5.85108L30.1952 6.14937C31.4254 6.31394 32.3922 7.2808 32.5568 8.51097L32.853 10.743L34.221 12.5347C34.9739 13.5201 34.9739 14.8881 34.221 15.8735L32.853 17.6632L32.5547 19.8993C32.3902 21.1295 31.4233 22.0963 30.1931 22.2609L27.9611 22.5571L26.1694 23.9251C25.184 24.6781 23.816 24.6781 22.8306 23.9251L21.0409 22.5571L18.8048 22.2589C17.5746 22.0963 16.6078 21.1274 16.4432 19.8973Z" stroke="#DC2828" stroke-width="2" stroke-linecap="round" stroke-linejoin="round"/>
<path d="M26.949 12.7347L23.2743 16.6531L21.0714 14.3021" stroke="#DC2828" stroke-width="2" stroke-linecap="round" stroke-linejoin="round"/>
<path d="M14.2143 30.3673H34.7857" stroke="#DC2828" stroke-width="2" stroke-linecap="round" stroke-linejoin="round"/>
<path d="M18.1326 36.2449H29.8877" stroke="#DC2828" stroke-width="2" stroke-linecap="round" stroke-linejoin="round"/>
</svg>
