<svg width="49" height="48" viewBox="0 0 49 48" fill="none" xmlns="http://www.w3.org/2000/svg">
<path d="M19.6333 13.8667H31.3667" stroke="#DC2828" stroke-width="2" stroke-linecap="round" stroke-linejoin="round"/>
<path d="M15.3667 21.3333H35.6333" stroke="#DC2828" stroke-width="2" stroke-linecap="round" stroke-linejoin="round"/>
<path d="M28.6046 30.3621C30.6874 32.4449 30.6874 35.8218 28.6046 37.9046C26.5218 39.9874 23.1449 39.9874 21.0621 37.9046C18.9793 35.8218 18.9793 32.4449 21.0621 30.3621C23.1449 28.2793 26.5218 28.2793 28.6046 30.3621" stroke="#DC2828" stroke-width="2" stroke-linecap="round" stroke-linejoin="round"/>
<path d="M30.1233 34.1334L35.7 39.5907L30.3768 44.8L25.0333 39.5709" stroke="#DC2828" stroke-width="2" stroke-linecap="round" stroke-linejoin="round"/>
<path d="M23.9667 39.5709L18.6232 44.8L13.3 39.5907L18.8767 34.1334" stroke="#DC2828" stroke-width="2" stroke-linecap="round" stroke-linejoin="round"/>
<path d="M13.9518 40.5333H10.9296C8.70325 40.5333 6.89999 38.7201 6.89999 36.4815V9.38511C6.89999 7.14649 8.70325 5.33331 10.9296 5.33331H39.137C41.3634 5.33331 43.1667 7.14649 43.1667 9.38511V36.4815C43.1667 38.7201 41.3634 40.5333 39.137 40.5333H36.1148" stroke="#DC2828" stroke-width="2" stroke-linecap="round" stroke-linejoin="round"/>
</svg>
