<svg width="48" height="48" viewBox="0 0 48 48" fill="none" xmlns="http://www.w3.org/2000/svg">
<path d="M26.182 19.3679C27.9393 21.1253 27.9393 23.9745 26.182 25.7319C24.4246 27.4893 21.5754 27.4893 19.818 25.7319C18.0607 23.9745 18.0607 21.1253 19.818 19.3679C21.5754 17.6106 24.4246 17.6106 26.182 19.3679" stroke="#DC2828" stroke-width="2" stroke-linecap="round" stroke-linejoin="round"/>
<path d="M31.332 36C30.504 33.8 28.402 32.226 25.912 32.226H20.088C17.598 32.226 15.496 33.8 14.668 36" stroke="#DC2828" stroke-width="2" stroke-linecap="round" stroke-linejoin="round"/>
<path d="M38 18C33.582 18 30 14.418 30 10C30 5.582 33.582 2 38 2C42.42 2 46 5.582 46 10C46 14.418 42.42 18 38 18" stroke="#DC2828" stroke-width="2" stroke-linecap="round" stroke-linejoin="round"/>
<path d="M41.5557 8.22211L37.1117 12.6661L34.4437 10.0001" stroke="#DC2828" stroke-width="2" stroke-linecap="round" stroke-linejoin="round"/>
<path d="M30 8H14C9.582 8 6 11.582 6 16V34C6 38.418 9.582 42 14 42H32C36.418 42 40 38.418 40 34V18" stroke="#DC2828" stroke-width="2" stroke-linecap="round" stroke-linejoin="round"/>
</svg>
