<svg xmlns="http://www.w3.org/2000/svg" width="30" height="29" viewBox="0 0 30 29">
    <path fill="#FFF" fill-rule="nonzero" d="M29.21 13.293c1.468-1.442.794-3.524-1.23-3.805l-7.582-1.121v.04-.04l-3.413-6.97c-.913-1.843-3.096-1.883-3.97 0l-3.413 6.93v0L2.02 9.448c-2.025.28-2.7 2.363-1.23 3.845l5.477 5.408-1.31 7.61c-.357 2.043 1.39 3.325 3.215 2.364l6.787-3.605 6.788 3.605c1.826.96 3.572-.32 3.215-2.364l-1.27-7.61h-.04.04v-.04.04l5.517-5.408zm-7.581 3.285a2.998 2.998 0 0 0-.834 2.604l1.032 6.128-5.477-2.924c-.874-.44-1.866-.44-2.7 0L8.173 25.31l1.032-6.169c.119-.96-.159-1.922-.834-2.603l-4.405-4.326 6.112-.881a3.021 3.021 0 0 0 2.183-1.603L15 4.121l2.739 5.607a3.098 3.098 0 0 0 2.183 1.603l6.112.92-4.405 4.327z"/>
</svg>
